<?xml version="1.0" encoding="iso-8859-1"?>
<!-- Generator: Adobe Illustrator 19.0.0, SVG Export Plug-In . SVG Version: 6.00 Build 0)  -->
<svg version="1.1" id="Layer_1" xmlns="http://www.w3.org/2000/svg" xmlns:xlink="http://www.w3.org/1999/xlink" x="0px" y="0px"
	 viewBox="0 0 512 512" style="enable-background:new 0 0 512 512;" xml:space="preserve">
<g>
	<g>
		<path d="M384.42,200.223V149.27l-127.58,50.953V149.27l-127.58,50.953v-43.712v-30.417V75.394H0v50.699v30.417v280.095h512V149.27
			L384.42,200.223z M30.417,105.811h68.426v20.282H30.417V105.811z M481.583,406.189L481.583,406.189H30.417V156.511h68.426v88.613
			l127.58-50.953v50.953l127.58-50.953v50.953l127.58-50.953V406.189z"/>
	</g>
</g>
<g>
	<g>
		<path d="M98.844,282.492v80.163h80.164v-80.163H98.844z M148.591,332.239h-19.33V312.91h19.33V332.239z"/>
	</g>
</g>
<g>
	<g>
		<path d="M226.423,282.492v80.163h80.165v-80.163H226.423z M276.171,332.239h-19.33V312.91h19.33V332.239z"/>
	</g>
</g>
<g>
	<g>
		<path d="M354.003,282.492v80.163h80.164v-80.163H354.003z M403.75,332.239h-19.33V312.91h19.33V332.239z"/>
	</g>
</g>
<g>
</g>
<g>
</g>
<g>
</g>
<g>
</g>
<g>
</g>
<g>
</g>
<g>
</g>
<g>
</g>
<g>
</g>
<g>
</g>
<g>
</g>
<g>
</g>
<g>
</g>
<g>
</g>
<g>
</g>
</svg>
